<svg width="32" height="32" viewBox="0 0 32 32" fill="none" xmlns="http://www.w3.org/2000/svg">
<path d="M27 4.996L5 5C4.447 5 4 5.443 4 5.996V19.996C4 20.549 4.447 20.996 5 20.996H27C27.553 20.996 28 20.549 28 19.996V5.996C28 5.443 27.553 4.996 27 4.996ZM27 20H5V5.996H27V20ZM29 1H3C1.343 1 0 2.342 0 4V24C0 25.654 1.338 26.994 2.99 26.998H13V28.215L6.758 29.026C6.312 29.137 6 29.537 6 29.996C6 30.549 6.447 30.996 7 30.996H25C25.553 30.996 26 30.549 26 29.996C26 29.537 25.688 29.137 25.242 29.025L19 28.215V26.998H29.01C30.662 26.994 32 25.654 32 24V4C32 2.342 30.656 1 29 1ZM30 24C30 24.551 29.551 25 29 25H3C2.448 25 2 24.551 2 24V4C2 3.448 2.448 3 3 3H29C29.551 3 30 3.448 30 4V24Z" fill="#BDBDBD"/>
</svg>
